# xmcd
#
# Track frame offsets:
#       150
#       8762
#       20940
#       35137
#       46567
#       58205
#       71282
#       85757
#       89382
#       101940
#       115825
#       133417
#       137160
#       146275
#       159355
#       174347
#       189257
#       194210
#       204652
#
# Disc length: 3322 seconds
#
# Revision: 0
# Processed by: cddbd v1.5.1PL0 Copyright (c) Steve Scherf et al.
# Submitted via: WaveLab 4.01
#
DISCID=120cf813
DTITLE=Brisa Roché - The Chase
DYEAR=2005
DGENRE=
TTITLE0=Piste 01
TTITLE1=Piste 02
TTITLE2=Piste 03
TTITLE3=Piste 04
TTITLE4=Piste 05
TTITLE5=Piste 06
TTITLE6=Piste 07
TTITLE7=Piste 08
TTITLE8=Piste 09
TTITLE9=Piste 10
TTITLE10=Piste 11
TTITLE11=Piste 12
TTITLE12=Piste 13
TTITLE13=Piste 14
TTITLE14=Piste 15
TTITLE15=Piste 16
TTITLE16=Piste 17
TTITLE17=Piste 18
TTITLE18=Piste 19
EXTD=
EXTT0=
EXTT1=
EXTT2=
EXTT3=
EXTT4=
EXTT5=
EXTT6=
EXTT7=
EXTT8=
EXTT9=
EXTT10=
EXTT11=
EXTT12=
EXTT13=
EXTT14=
EXTT15=
EXTT16=
EXTT17=
EXTT18=
PLAYORDER=
